# xmcd CD database file
#
# Track frame offsets:
#	150
#	24666
#	49048
#	64296
#	87398
#	123952
#	152761
#	173723
#	208573
#	234568
#	262156
#
# Disc length: 4063 seconds
#
# Revision: 1
# Processed by: cddbd v1.5.1PL2 Copyright (c) Steve Scherf et al.
# Submitted via: CDex 1.51
#
DISCID=960fdd0b
DTITLE=Pulsar - Charlie Austin Piano Solo
DYEAR=2006
DGENRE=Jazz
TTITLE0=You Stepped Out of a Dream
TTITLE1=I Hear a Rhapsody
TTITLE2=Pulsar
TTITLE3=Stars Fell On Alabama
TTITLE4=East of the Sun
TTITLE5=Our Love Is Here to Stay
TTITLE6=In Love In Vain
TTITLE7=Body and Soul
TTITLE8=Isn't it Romantic
TTITLE9=You Don't Know What Love Is
TTITLE10=Stella by Starlight
EXTD=YEAR: 2006
EXTT0=
EXTT1=
EXTT2=
EXTT3=
EXTT4=
EXTT5=
EXTT6=
EXTT7=
EXTT8=
EXTT9=
EXTT10=
PLAYORDER=
